<svg width="283" height="73" viewBox="0 0 283 73" fill="none" xmlns="http://www.w3.org/2000/svg">
<path d="M276.986 48.7543V27.6131C276.986 26.8927 276.971 26.235 276.939 25.6399C276.939 25.0135 276.877 24.4811 276.752 24.0426C276.658 23.6041 276.485 23.2753 276.235 23.056C275.984 22.8054 275.64 22.6802 275.201 22.6802V22.5862L281.121 18.5459H281.215V48.7543C281.215 49.4746 281.215 50.148 281.215 50.7744C281.246 51.3695 281.309 51.8863 281.403 52.3248C281.528 52.7633 281.716 53.1078 281.966 53.3583C282.217 53.5776 282.561 53.6872 283 53.6872V53.7812H275.201V53.6872C275.64 53.6872 275.984 53.5776 276.235 53.3583C276.485 53.1078 276.658 52.7633 276.752 52.3248C276.877 51.8863 276.939 51.3695 276.939 50.7744C276.971 50.148 276.986 49.4746 276.986 48.7543Z" fill="#91B7AC"/>
<path d="M271.559 48.7548C271.559 49.4751 271.559 50.1485 271.559 50.7749C271.59 51.37 271.652 51.8868 271.746 52.3253C271.872 52.7638 272.06 53.1083 272.31 53.3589C272.561 53.5781 272.905 53.6877 273.344 53.6877V53.7817C272.78 53.7817 272.154 53.766 271.465 53.7347C270.776 53.7034 270.133 53.5624 269.538 53.3119C268.943 53.03 268.442 52.5758 268.035 51.9494C267.628 51.323 267.393 50.4148 267.33 49.2246C265.952 51.0098 264.48 52.2157 262.914 52.8421C261.379 53.4685 259.751 53.7817 258.028 53.7817C256.462 53.7817 255.147 53.4841 254.082 52.8891C253.017 52.2626 252.203 51.4953 251.639 50.587C251.106 49.6474 250.825 48.6295 250.793 47.5333C250.793 46.4371 251.059 45.4035 251.592 44.4326C252.124 43.4303 252.939 42.569 254.035 41.8487C255.162 41.097 256.572 40.6272 258.263 40.4393C259.672 40.2827 260.925 40.1104 262.022 39.9225C263.118 39.7346 264.026 39.4527 264.746 39.0768C265.498 38.6697 266.031 38.1216 266.344 37.4325C266.657 36.7435 266.72 35.8195 266.532 34.6607C266.375 33.5958 265.984 32.7188 265.357 32.0298C264.762 31.3407 264.042 30.8553 263.196 30.5734C262.382 30.2915 261.489 30.2289 260.518 30.3855C259.579 30.5107 258.686 30.8709 257.84 31.466C256.995 32.0611 256.259 32.9067 255.632 34.0029C255.006 35.0678 254.599 36.3833 254.411 37.9493H254.317L253.518 33.815C254.27 32.7188 255.241 31.8575 256.431 31.2311C257.621 30.5734 258.874 30.1506 260.189 29.9626C261.536 29.7747 262.883 29.8374 264.23 30.1506C265.576 30.4324 266.798 30.9492 267.894 31.7009C268.99 32.4526 269.867 33.4548 270.525 34.7077C271.214 35.9291 271.559 37.4012 271.559 39.1238V48.7548ZM267.33 39.1238C267.33 38.4974 267.315 38.0276 267.283 37.7144C267.283 37.3699 267.221 36.9471 267.095 36.4459C267.001 37.3229 266.72 38.0276 266.25 38.56C265.78 39.0612 265.201 39.4683 264.511 39.7815C263.822 40.0634 263.055 40.2983 262.209 40.4862C261.395 40.6742 260.565 40.8621 259.719 41.05C258.623 41.3006 257.715 41.7547 256.995 42.4124C256.274 43.0702 255.757 43.8218 255.444 44.6675C255.131 45.5131 254.99 46.3901 255.021 47.2984C255.084 48.2067 255.319 49.0523 255.726 49.8353C256.133 50.6183 256.713 51.2761 257.464 51.8085C258.216 52.3409 259.124 52.6385 260.189 52.7011C260.596 52.7324 261.066 52.7011 261.599 52.6072C262.131 52.5132 262.711 52.3253 263.337 52.0434C263.963 51.7615 264.621 51.3387 265.31 50.7749C265.999 50.2112 266.673 49.4751 267.33 48.5669V39.1238Z" fill="#91B7AC"/>
<path d="M240.863 30.2444H245.467V30.6203H240.863V47.2983C240.863 48.7704 241.16 49.9449 241.755 50.8218C242.382 51.6988 243.118 52.2156 243.963 52.3722C244.809 52.4975 245.655 52.2469 246.5 51.6205C247.377 50.9941 248.066 49.9135 248.568 48.3789L248.896 48.5198C248.583 49.6473 248.066 50.6183 247.346 51.4326C246.626 52.2469 245.811 52.8576 244.903 53.2648C243.995 53.672 243.04 53.8756 242.037 53.8756C241.066 53.8756 240.174 53.6563 239.359 53.2178C238.576 52.748 237.919 52.0433 237.386 51.1037C236.885 50.1328 236.635 48.8956 236.635 47.3923V30.6203H233.91V30.2444C234.881 30.2444 235.758 30.0878 236.541 29.7746C237.355 29.4614 238.06 29.0386 238.655 28.5062C239.25 27.9424 239.72 27.3003 240.064 26.58C240.44 25.8283 240.675 25.0453 240.769 24.231H240.863V30.2444Z" fill="#91B7AC"/>
<path d="M227.847 22.5864C228.724 22.5864 229.381 22.8683 229.82 23.4321C230.258 23.9645 230.478 24.5596 230.478 25.2173C230.478 25.8437 230.258 26.4388 229.82 27.0026C229.381 27.535 228.724 27.8012 227.847 27.8012C226.97 27.8012 226.312 27.535 225.874 27.0026C225.466 26.4388 225.263 25.8437 225.263 25.2173C225.263 24.5596 225.466 23.9645 225.874 23.4321C226.312 22.8683 226.97 22.5864 227.847 22.5864ZM226.015 48.7545V39.3584C226.015 38.638 225.999 37.9803 225.968 37.3852C225.968 36.7588 225.905 36.2264 225.78 35.7879C225.686 35.3494 225.513 35.0206 225.263 34.8013C225.012 34.5508 224.668 34.4255 224.229 34.4255V34.3315L230.149 30.2912H230.243V48.7545C230.243 49.4748 230.243 50.1482 230.243 50.7746C230.274 51.3697 230.337 51.8865 230.431 52.325C230.556 52.7635 230.744 53.108 230.994 53.3586C231.245 53.5778 231.59 53.6874 232.028 53.6874V53.7814H224.229V53.6874C224.668 53.6874 225.012 53.5778 225.263 53.3586C225.513 53.108 225.686 52.7635 225.78 52.325C225.905 51.8865 225.968 51.3697 225.968 50.7746C225.999 50.1482 226.015 49.4748 226.015 48.7545Z" fill="#91B7AC"/>
<path d="M198.124 65.4328C198.562 65.4328 198.907 65.3075 199.157 65.057C199.408 64.8377 199.58 64.5089 199.674 64.0704C199.799 63.6319 199.862 63.0994 199.862 62.473C199.893 61.878 199.909 61.2202 199.909 60.4999V39.3587C199.909 38.6383 199.893 37.9806 199.862 37.3855C199.862 36.7591 199.799 36.2267 199.674 35.7882C199.58 35.3497 199.408 35.0209 199.157 34.8016C198.907 34.5511 198.562 34.4258 198.124 34.4258V34.3318L204.043 30.2915H204.137V33.1573C204.858 32.343 205.719 31.6696 206.721 31.1371C207.723 30.5734 208.976 30.2915 210.48 30.2915C213.111 30.2915 215.303 30.8709 217.057 32.0298C218.811 33.1886 220.126 34.645 221.003 36.3989C221.88 38.1529 222.319 40.0478 222.319 42.0836C222.35 44.0881 221.927 45.9673 221.05 47.7212C220.173 49.4751 218.858 50.9315 217.104 52.0904C215.35 53.2492 213.142 53.8287 210.48 53.8287C208.976 53.8287 207.723 53.5468 206.721 52.983C205.719 52.4192 204.858 51.7302 204.137 50.9159V60.4999C204.137 61.9719 204.216 63.1621 204.372 64.0704C204.529 64.9787 205.046 65.4328 205.923 65.4328V65.5268H198.124V65.4328ZM204.137 48.5199C204.732 50.0232 205.562 51.2291 206.627 52.1374C207.692 53.0143 208.976 53.4528 210.48 53.4528C212.171 53.4528 213.58 52.889 214.708 51.7615C215.835 50.634 216.681 49.2246 217.245 47.5333C217.809 45.842 218.09 44.0254 218.09 42.0836C218.09 40.1104 217.809 38.2782 217.245 36.5869C216.681 34.8956 215.835 33.4862 214.708 32.3586C213.58 31.2311 212.171 30.6673 210.48 30.6673C208.976 30.6673 207.692 31.1371 206.627 32.0768C205.562 32.985 204.732 34.1909 204.137 35.6942V48.5199Z" fill="#91B7AC"/>
<path d="M194.481 48.7548C194.481 49.4751 194.481 50.1485 194.481 50.7749C194.513 51.37 194.575 51.8868 194.669 52.3253C194.795 52.7638 194.983 53.1083 195.233 53.3589C195.484 53.5781 195.828 53.6877 196.267 53.6877V53.7817C195.703 53.7817 195.076 53.766 194.387 53.7347C193.698 53.7034 193.056 53.5624 192.461 53.3119C191.866 53.03 191.365 52.5758 190.958 51.9494C190.551 51.323 190.316 50.4148 190.253 49.2246C188.875 51.0098 187.403 52.2157 185.837 52.8421C184.302 53.4685 182.674 53.7817 180.951 53.7817C179.385 53.7817 178.07 53.4841 177.005 52.8891C175.94 52.2626 175.125 51.4953 174.562 50.587C174.029 49.6474 173.747 48.6295 173.716 47.5333C173.716 46.4371 173.982 45.4035 174.515 44.4326C175.047 43.4303 175.861 42.569 176.958 41.8487C178.085 41.097 179.495 40.6272 181.186 40.4393C182.595 40.2827 183.848 40.1104 184.944 39.9225C186.041 39.7346 186.949 39.4527 187.669 39.0768C188.421 38.6697 188.953 38.1216 189.267 37.4325C189.58 36.7435 189.642 35.8195 189.454 34.6607C189.298 33.5958 188.906 32.7188 188.28 32.0298C187.685 31.3407 186.965 30.8553 186.119 30.5734C185.305 30.2915 184.412 30.2289 183.441 30.3855C182.501 30.5107 181.609 30.8709 180.763 31.466C179.917 32.0611 179.181 32.9067 178.555 34.0029C177.929 35.0678 177.521 36.3833 177.334 37.9493H177.24L176.441 33.815C177.193 32.7188 178.164 31.8575 179.354 31.2311C180.544 30.5734 181.797 30.1506 183.112 29.9626C184.459 29.7747 185.806 29.8374 187.152 30.1506C188.499 30.4324 189.721 30.9492 190.817 31.7009C191.913 32.4526 192.79 33.4548 193.448 34.7077C194.137 35.9291 194.481 37.4012 194.481 39.1238V48.7548ZM190.253 39.1238C190.253 38.4974 190.237 38.0276 190.206 37.7144C190.206 37.3699 190.144 36.9471 190.018 36.4459C189.924 37.3229 189.642 38.0276 189.173 38.56C188.703 39.0612 188.123 39.4683 187.434 39.7815C186.745 40.0634 185.978 40.2983 185.132 40.4862C184.318 40.6742 183.488 40.8621 182.642 41.05C181.546 41.3006 180.638 41.7547 179.917 42.4124C179.197 43.0702 178.68 43.8218 178.367 44.6675C178.054 45.5131 177.913 46.3901 177.944 47.2984C178.007 48.2067 178.242 49.0523 178.649 49.8353C179.056 50.6183 179.636 51.2761 180.387 51.8085C181.139 52.3409 182.047 52.6385 183.112 52.7011C183.519 52.7324 183.989 52.7011 184.522 52.6072C185.054 52.5132 185.633 52.3253 186.26 52.0434C186.886 51.7615 187.544 51.3387 188.233 50.7749C188.922 50.2112 189.595 49.4751 190.253 48.5669V39.1238Z" fill="#91B7AC"/>
<path d="M160.37 53.7812C157.739 53.7812 155.437 53.3271 153.464 52.4188C151.491 51.5105 149.831 50.3204 148.484 48.8483C147.169 47.3763 146.167 45.7006 145.478 43.8214C144.82 41.9109 144.491 39.969 144.491 37.9958C144.491 36.0227 144.804 34.0965 145.431 32.2173C146.088 30.3067 147.075 28.6154 148.39 27.1434C149.737 25.6713 151.397 24.4812 153.37 23.5729C155.375 22.6646 157.708 22.2104 160.37 22.2104C162.563 22.2104 164.599 22.7116 166.478 23.7138C168.388 24.6847 169.876 25.9376 170.941 27.4723L170.189 33.0159H170.095C169.907 31.3246 169.5 29.8369 168.874 28.5528C168.247 27.2687 167.48 26.1881 166.572 25.3112C165.695 24.4029 164.708 23.7295 163.612 23.291C162.547 22.8212 161.467 22.5863 160.37 22.5863C158.428 22.5863 156.722 23.0248 155.249 23.9017C153.777 24.7787 152.54 25.9532 151.538 27.4253C150.567 28.866 149.831 30.5103 149.33 32.3582C148.829 34.1748 148.578 36.054 148.578 37.9958C148.578 39.9064 148.813 41.7856 149.283 43.6335C149.784 45.4814 150.52 47.1414 151.491 48.6134C152.462 50.0541 153.683 51.213 155.156 52.09C156.659 52.9669 158.397 53.4054 160.37 53.4054C161.435 53.4054 162.5 53.1705 163.565 52.7007C164.661 52.2309 165.648 51.5575 166.525 50.6805C167.433 49.7723 168.2 48.676 168.827 47.3919C169.485 46.1078 169.907 44.6357 170.095 42.9758H170.189L170.941 48.5194C169.876 50.0541 168.388 51.3226 166.478 52.3249C164.599 53.2958 162.563 53.7812 160.37 53.7812Z" fill="#91B7AC"/>
<path d="M141.87 38.0902C141.557 36.1483 140.946 34.6137 140.038 33.4861C139.161 32.3273 138.143 31.4973 136.984 30.9962C135.856 30.4637 134.697 30.2288 133.507 30.2915C132.348 30.3541 131.315 30.6516 130.407 31.1841C129.53 31.7165 128.888 32.4526 128.48 33.3922C128.105 34.3005 128.136 35.3497 128.574 36.5399C128.888 37.4168 129.42 38.1528 130.172 38.7479C130.955 39.3117 131.816 39.8285 132.756 40.2983C133.727 40.7368 134.729 41.1596 135.762 41.5667C136.796 41.9426 137.751 42.3811 138.628 42.8822C139.505 43.352 140.257 43.9314 140.883 44.6205C141.51 45.2782 141.87 46.1082 141.964 47.1104C142.089 48.238 141.807 49.2559 141.118 50.1642C140.429 51.0411 139.505 51.7771 138.346 52.3722C137.187 52.9673 135.856 53.3901 134.353 53.6407C132.881 53.8599 131.409 53.8756 129.937 53.6877C128.496 53.4998 127.134 53.0926 125.85 52.4662C124.597 51.8085 123.594 50.9002 122.843 49.7413L123.266 45.5601H123.313C123.563 47.408 124.096 48.8957 124.91 50.0232C125.756 51.1507 126.711 51.9964 127.776 52.5602C128.872 53.0926 130.015 53.3745 131.205 53.4058C132.427 53.4371 133.523 53.2649 134.494 52.889C135.496 52.5132 136.295 51.9651 136.89 51.2447C137.516 50.5243 137.798 49.71 137.736 48.8017C137.673 47.8308 137.297 47.0634 136.608 46.4997C135.919 45.9046 135.089 45.3878 134.118 44.9493C133.147 44.4795 132.098 44.0567 130.97 43.6809C129.843 43.2737 128.778 42.7882 127.776 42.2245C126.805 41.6294 125.959 40.8934 125.239 40.0164C124.55 39.1081 124.158 37.9649 124.064 36.5868C123.97 35.2714 124.252 34.1595 124.91 33.2512C125.568 32.3116 126.445 31.5756 127.541 31.0432C128.637 30.4794 129.89 30.1192 131.299 29.9626C132.709 29.7747 134.102 29.806 135.48 30.0566C136.859 30.2758 138.158 30.7143 139.38 31.372C140.601 31.9984 141.588 32.8284 142.34 33.862L141.964 38.0902H141.87Z" fill="#91B7AC"/>
<path d="M116.498 22.5864C117.375 22.5864 118.032 22.8683 118.471 23.4321C118.909 23.9645 119.129 24.5596 119.129 25.2173C119.129 25.8437 118.909 26.4388 118.471 27.0026C118.032 27.535 117.375 27.8012 116.498 27.8012C115.621 27.8012 114.963 27.535 114.524 27.0026C114.117 26.4388 113.914 25.8437 113.914 25.2173C113.914 24.5596 114.117 23.9645 114.524 23.4321C114.963 22.8683 115.621 22.5864 116.498 22.5864ZM114.665 48.7545V39.3584C114.665 38.638 114.65 37.9803 114.618 37.3852C114.618 36.7588 114.556 36.2264 114.43 35.7879C114.337 35.3494 114.164 35.0206 113.914 34.8013C113.663 34.5508 113.319 34.4255 112.88 34.4255V34.3315L118.8 30.2912H118.894V48.7545C118.894 49.4748 118.894 50.1482 118.894 50.7746C118.925 51.3697 118.988 51.8865 119.082 52.325C119.207 52.7635 119.395 53.108 119.645 53.3586C119.896 53.5778 120.24 53.6874 120.679 53.6874V53.7814H112.88V53.6874C113.319 53.6874 113.663 53.5778 113.914 53.3586C114.164 53.108 114.337 52.7635 114.43 52.325C114.556 51.8865 114.618 51.3697 114.618 50.7746C114.65 50.1482 114.665 49.4748 114.665 48.7545Z" fill="#91B7AC"/>
<path d="M93.3775 48.7547V39.3586C93.3775 38.6382 93.3619 37.9805 93.3306 37.3854C93.3306 36.759 93.2679 36.2266 93.1426 35.7881C93.0487 35.3496 92.8764 35.0207 92.6259 34.8015C92.3753 34.5509 92.0308 34.4257 91.5923 34.4257V34.3317L97.5118 30.2914H97.6058V36.7747C98.9839 34.7389 100.393 33.2198 101.834 32.2176C103.306 31.184 104.684 30.5263 105.968 30.2444C107.284 29.9312 108.458 29.8999 109.492 30.1504C110.557 30.401 111.371 30.7612 111.935 31.231L110.807 35.4592H110.713C110.557 34.2064 110.024 33.2042 109.116 32.4525C108.239 31.7008 107.158 31.3406 105.874 31.3719C104.59 31.4032 103.212 31.9044 101.74 32.8753C100.268 33.8462 98.8899 35.4279 97.6058 37.6203V48.7547C97.6058 49.475 97.6058 50.1484 97.6058 50.7748C97.6371 51.3699 97.6997 51.8867 97.7937 52.3252C97.919 52.7636 98.1069 53.1082 98.3575 53.3587C98.608 53.578 98.9525 53.6876 99.391 53.6876V53.7816H91.5923V53.6876C92.0308 53.6876 92.3753 53.578 92.6259 53.3587C92.8764 53.1082 93.0487 52.7636 93.1426 52.3252C93.2679 51.8867 93.3306 51.3699 93.3306 50.7748C93.3619 50.1484 93.3775 49.475 93.3775 48.7547Z" fill="#91B7AC"/>
<path d="M87.9253 27.6133V48.7545C87.9253 49.4748 87.9253 50.1482 87.9253 50.7746C87.9567 51.3697 88.0193 51.8865 88.1133 52.325C88.2386 52.7635 88.4265 53.108 88.677 53.3586C88.9276 53.5778 89.2721 53.6874 89.7106 53.6874V53.7814H81.9119V53.6874C82.3503 53.6874 82.6949 53.5778 82.9454 53.3586C83.196 53.108 83.3683 52.7635 83.4622 52.325C83.5875 51.8865 83.6501 51.3697 83.6501 50.7746C83.6815 50.1482 83.6971 49.4748 83.6971 48.7545V27.6133C83.6971 26.893 83.6815 26.2352 83.6501 25.6401C83.6501 25.0137 83.5875 24.4813 83.4622 24.0428C83.3683 23.6043 83.196 23.2755 82.9454 23.0562C82.6949 22.8057 82.3503 22.6804 81.9119 22.6804V22.5864H89.7106V22.6804C88.8336 22.6804 88.3169 23.1345 88.1603 24.0428C88.0037 24.9511 87.9253 26.1413 87.9253 27.6133Z" fill="#91B7AC"/>
<g clip-path="url(#clip0_266_794)">
<path d="M36.8935 0C32.9133 0 29.4688 4.28639 27.938 10.4098C30.3108 11.8641 32.7602 13.8542 34.9799 16.3036C40.491 22.5801 42.6342 29.9282 40.7206 34.2145C44.3181 31.5355 46.844 25.1825 46.844 17.7579C46.7675 7.96043 42.328 0 36.8935 0Z" fill="#91B7AC"/>
<path d="M11.022 10.2567C8.18994 13.0888 8.80228 18.5233 12.0171 23.9578C14.6961 23.2689 17.8343 22.9628 21.2022 23.1924C29.5453 23.7282 36.2811 27.4022 37.8885 31.8417C38.5008 27.4022 35.8218 21.1257 30.5404 15.9208C23.6515 8.87892 14.8491 6.42956 11.022 10.2567Z" fill="#91B7AC"/>
<path d="M0 35.8221C0 39.8023 4.28639 43.2468 10.4098 44.7776C11.8641 42.4048 13.8542 39.9554 16.3036 37.7357C22.5801 32.2246 29.9282 30.0814 34.2145 31.995C31.5355 28.3975 25.1825 25.8716 17.7579 25.8716C7.96043 25.9481 0 30.3111 0 35.8221Z" fill="#91B7AC"/>
<path d="M10.2567 61.617C13.0888 64.4491 18.5233 63.8367 23.9578 60.6219C23.2689 57.943 22.9628 54.8047 23.1924 51.4368C23.7282 43.0937 27.4022 36.358 31.8417 34.7506C27.4022 34.1382 21.1257 36.8172 15.9208 42.0986C8.87892 49.064 6.42956 57.7899 10.2567 61.617Z" fill="#91B7AC"/>
<path d="M35.8219 72.6389C39.8021 72.6389 43.2465 68.3525 44.7774 62.2291C42.4045 60.7748 39.9552 58.7846 37.7354 56.3353C32.2244 50.0588 30.0812 42.7107 31.9947 38.4243C28.3972 41.1033 25.8713 47.4563 25.8713 54.881C25.9479 64.6784 30.3108 72.6389 35.8219 72.6389Z" fill="#91B7AC"/>
<path d="M61.6168 62.3824C64.4488 59.5503 63.8365 54.1158 60.6217 48.6812C57.9427 49.3701 54.8045 49.6763 51.4366 49.4467C43.0935 48.9109 36.3577 45.2368 34.7503 40.7974C34.138 45.2368 36.817 51.5133 42.0984 56.7182C49.0638 63.7601 57.7896 66.286 61.6168 62.3824Z" fill="#91B7AC"/>
<path d="M72.6389 36.8935C72.6389 32.9133 68.3525 29.4688 62.2291 27.938C60.7748 30.3108 58.7846 32.7602 56.3353 34.9799C50.0588 40.491 42.7107 42.6342 38.4243 40.7206C41.1033 44.3181 47.4563 46.844 54.881 46.844C64.6784 46.7675 72.6389 42.328 72.6389 36.8935Z" fill="#91B7AC"/>
<path d="M62.3821 11.0223C59.5501 8.19019 54.1155 8.80253 48.681 12.0173C49.3699 14.6963 49.6761 17.8346 49.4464 21.2024C48.9106 29.5456 45.2366 36.2813 40.7971 37.8887C45.2366 38.5011 51.5131 35.8221 56.718 30.5406C63.7599 23.6518 66.2858 14.8494 62.3821 11.0223Z" fill="#91B7AC"/>
</g>
<defs>
<clipPath id="clip0_266_794">
<rect width="72.6389" height="72.6389" fill="white"/>
</clipPath>
</defs>
</svg>
