<svg width="176" height="46" viewBox="0 0 176 46" fill="none" xmlns="http://www.w3.org/2000/svg">
<g clip-path="url(#clip0_382_317)">
<path d="M172.26 30.3206V17.1727C172.26 16.7247 172.25 16.3157 172.231 15.9456C172.231 15.556 172.192 15.2249 172.114 14.9522C172.056 14.6795 171.949 14.475 171.793 14.3386C171.637 14.1828 171.423 14.1049 171.15 14.1049V14.0464L174.831 11.5337H174.89V30.3206C174.89 30.7686 174.89 31.1873 174.89 31.5769C174.909 31.947 174.948 32.2684 175.007 32.5411C175.085 32.8138 175.201 33.028 175.357 33.1839C175.513 33.3202 175.727 33.3884 176 33.3884V33.4468H171.15V33.3884C171.423 33.3884 171.637 33.3202 171.793 33.1839C171.949 33.028 172.056 32.8138 172.114 32.5411C172.192 32.2684 172.231 31.947 172.231 31.5769C172.25 31.1873 172.26 30.7686 172.26 30.3206Z" fill="#91B7AC"/>
<path d="M168.885 30.321C168.885 30.769 168.885 31.1878 168.885 31.5774C168.904 31.9475 168.943 32.2689 169.001 32.5416C169.079 32.8143 169.196 33.0285 169.352 33.1843C169.508 33.3207 169.722 33.3889 169.995 33.3889V33.4473C169.644 33.4473 169.255 33.4376 168.826 33.4181C168.398 33.3986 167.998 33.311 167.628 33.1551C167.258 32.9798 166.946 32.6974 166.693 32.3078C166.44 31.9183 166.294 31.3534 166.255 30.6132C165.398 31.7235 164.482 32.4734 163.509 32.863C162.554 33.2525 161.541 33.4473 160.47 33.4473C159.496 33.4473 158.678 33.2623 158.016 32.8922C157.353 32.5026 156.847 32.0254 156.496 31.4605C156.165 30.8762 155.99 30.2431 155.97 29.5614C155.97 28.8796 156.136 28.2369 156.467 27.633C156.798 27.0097 157.305 26.4741 157.986 26.0261C158.688 25.5586 159.564 25.2664 160.616 25.1495C161.493 25.0522 162.272 24.945 162.953 24.8282C163.635 24.7113 164.2 24.536 164.648 24.3022C165.116 24.049 165.447 23.7082 165.641 23.2796C165.836 22.8511 165.875 22.2765 165.758 21.5558C165.661 20.8935 165.417 20.3481 165.028 19.9196C164.658 19.4911 164.21 19.1892 163.684 19.0139C163.177 18.8386 162.622 18.7996 162.018 18.897C161.434 18.9749 160.879 19.1989 160.353 19.569C159.827 19.9391 159.369 20.465 158.98 21.1468C158.59 21.809 158.337 22.6271 158.22 23.601H158.162L157.665 21.0299C158.133 20.3481 158.736 19.8125 159.477 19.4229C160.217 19.0139 160.996 18.7509 161.814 18.6341C162.652 18.5172 163.489 18.5561 164.327 18.7509C165.164 18.9262 165.924 19.2476 166.606 19.7151C167.287 20.1826 167.833 20.8059 168.242 21.585C168.67 22.3447 168.885 23.2602 168.885 24.3315V30.321ZM166.255 24.3315C166.255 23.9419 166.245 23.6497 166.226 23.4549C166.226 23.2407 166.187 22.9777 166.109 22.6661C166.05 23.2115 165.875 23.6497 165.583 23.9809C165.291 24.2925 164.93 24.5457 164.502 24.7405C164.073 24.9158 163.596 25.0619 163.07 25.1788C162.564 25.2956 162.048 25.4125 161.522 25.5294C160.84 25.6852 160.275 25.9676 159.827 26.3767C159.379 26.7857 159.058 27.2532 158.863 27.7791C158.668 28.305 158.581 28.8504 158.6 29.4153C158.639 29.9802 158.785 30.5061 159.038 30.993C159.292 31.48 159.652 31.889 160.119 32.2202C160.587 32.5513 161.152 32.7363 161.814 32.7753C162.067 32.7948 162.359 32.7753 162.69 32.7169C163.022 32.6584 163.382 32.5416 163.772 32.3663C164.161 32.191 164.57 31.928 164.999 31.5774C165.427 31.2268 165.846 30.769 166.255 30.2042V24.3315Z" fill="#91B7AC"/>
<path d="M149.795 18.8092H152.658V19.0429H149.795V29.4151C149.795 30.3306 149.98 31.061 150.35 31.6064C150.739 32.1518 151.197 32.4732 151.723 32.5706C152.249 32.6485 152.775 32.4927 153.301 32.1031C153.846 31.7136 154.275 31.0415 154.586 30.0871L154.791 30.1748C154.596 30.876 154.275 31.4798 153.827 31.9862C153.379 32.4927 152.872 32.8725 152.307 33.1257C151.742 33.3789 151.148 33.5056 150.525 33.5056C149.921 33.5056 149.366 33.3692 148.86 33.0965C148.373 32.8043 147.964 32.3661 147.633 31.7817C147.321 31.1779 147.165 30.4085 147.165 29.4735V19.0429H145.47V18.8092C146.074 18.8092 146.62 18.7118 147.107 18.517C147.613 18.3222 148.051 18.0593 148.421 17.7281C148.792 17.3775 149.084 16.9782 149.298 16.5302C149.532 16.0627 149.678 15.5758 149.736 15.0693H149.795V18.8092Z" fill="#91B7AC"/>
<path d="M141.7 14.0464C142.245 14.0464 142.654 14.2217 142.927 14.5723C143.2 14.9035 143.336 15.2736 143.336 15.6826C143.336 16.0722 143.2 16.4423 142.927 16.7929C142.654 17.124 142.245 17.2896 141.7 17.2896C141.154 17.2896 140.745 17.124 140.473 16.7929C140.219 16.4423 140.093 16.0722 140.093 15.6826C140.093 15.2736 140.219 14.9035 140.473 14.5723C140.745 14.2217 141.154 14.0464 141.7 14.0464ZM140.56 30.3206V24.4771C140.56 24.0291 140.551 23.62 140.531 23.2499C140.531 22.8604 140.492 22.5292 140.414 22.2565C140.356 21.9838 140.249 21.7793 140.093 21.643C139.937 21.4871 139.723 21.4092 139.45 21.4092V21.3508L143.131 18.8381H143.19V30.3206C143.19 30.7686 143.19 31.1873 143.19 31.5769C143.209 31.947 143.248 32.2684 143.307 32.5411C143.385 32.8138 143.502 33.028 143.657 33.1839C143.813 33.3202 144.027 33.3884 144.3 33.3884V33.4468H139.45V33.3884C139.723 33.3884 139.937 33.3202 140.093 33.1839C140.249 33.028 140.356 32.8138 140.414 32.5411C140.492 32.2684 140.531 31.947 140.531 31.5769C140.551 31.1873 140.56 30.7686 140.56 30.3206Z" fill="#91B7AC"/>
<path d="M123.215 40.693C123.488 40.693 123.702 40.6151 123.858 40.4593C124.014 40.323 124.121 40.1184 124.179 39.8457C124.257 39.573 124.296 39.2419 124.296 38.8523C124.315 38.4823 124.325 38.0732 124.325 37.6252V24.4773C124.325 24.0293 124.315 23.6203 124.296 23.2502C124.296 22.8606 124.257 22.5295 124.179 22.2568C124.121 21.9841 124.014 21.7796 123.858 21.6433C123.702 21.4874 123.488 21.4095 123.215 21.4095V21.3511L126.896 18.8384H126.955V20.6206C127.403 20.1142 127.938 19.6954 128.562 19.3643C129.185 19.0137 129.964 18.8384 130.899 18.8384C132.535 18.8384 133.899 19.1987 134.99 19.9194C136.08 20.6401 136.898 21.5459 137.444 22.6366C137.989 23.7274 138.262 24.9059 138.262 26.172C138.281 27.4186 138.018 28.5873 137.473 29.6781C136.928 30.7688 136.11 31.6746 135.019 32.3953C133.928 33.116 132.555 33.4763 130.899 33.4763C129.964 33.4763 129.185 33.301 128.562 32.9504C127.938 32.5998 127.403 32.1713 126.955 31.6648V37.6252C126.955 38.5407 127.003 39.2809 127.101 39.8457C127.198 40.4106 127.52 40.693 128.065 40.693V40.7515H123.215V40.693ZM126.955 30.1748C127.325 31.1097 127.841 31.8596 128.503 32.4245C129.166 32.9699 129.964 33.2426 130.899 33.2426C131.951 33.2426 132.828 32.892 133.529 32.1908C134.23 31.4895 134.756 30.613 135.106 29.5612C135.457 28.5094 135.632 27.3796 135.632 26.172C135.632 24.9448 135.457 23.8053 135.106 22.7535C134.756 21.7017 134.23 20.8252 133.529 20.1239C132.828 19.4227 131.951 19.0721 130.899 19.0721C129.964 19.0721 129.166 19.3643 128.503 19.9486C127.841 20.5135 127.325 21.2634 126.955 22.1984V30.1748Z" fill="#91B7AC"/>
<path d="M120.95 30.321C120.95 30.769 120.95 31.1878 120.95 31.5774C120.969 31.9475 121.008 32.2689 121.067 32.5416C121.144 32.8143 121.261 33.0285 121.417 33.1843C121.573 33.3207 121.787 33.3889 122.06 33.3889V33.4473C121.709 33.4473 121.32 33.4376 120.891 33.4181C120.463 33.3986 120.063 33.311 119.693 33.1551C119.323 32.9798 119.012 32.6974 118.758 32.3078C118.505 31.9183 118.359 31.3534 118.32 30.6132C117.463 31.7235 116.548 32.4734 115.574 32.863C114.619 33.2525 113.606 33.4473 112.535 33.4473C111.561 33.4473 110.743 33.2623 110.081 32.8922C109.418 32.5026 108.912 32.0254 108.561 31.4605C108.23 30.8762 108.055 30.2431 108.036 29.5614C108.036 28.8796 108.201 28.2369 108.532 27.633C108.863 27.0097 109.37 26.4741 110.052 26.0261C110.753 25.5586 111.629 25.2664 112.681 25.1495C113.558 25.0522 114.337 24.945 115.018 24.8282C115.7 24.7113 116.265 24.536 116.713 24.3022C117.181 24.049 117.512 23.7082 117.706 23.2796C117.901 22.8511 117.94 22.2765 117.823 21.5558C117.726 20.8935 117.482 20.3481 117.093 19.9196C116.723 19.4911 116.275 19.1892 115.749 19.0139C115.242 18.8386 114.687 18.7996 114.084 18.897C113.499 18.9749 112.944 19.1989 112.418 19.569C111.892 19.9391 111.434 20.465 111.045 21.1468C110.655 21.809 110.402 22.6271 110.285 23.601H110.227L109.73 21.0299C110.198 20.3481 110.801 19.8125 111.542 19.4229C112.282 19.0139 113.061 18.7509 113.879 18.6341C114.717 18.5172 115.554 18.5561 116.392 18.7509C117.229 18.9262 117.989 19.2476 118.671 19.7151C119.352 20.1826 119.898 20.8059 120.307 21.585C120.735 22.3447 120.95 23.2602 120.95 24.3315V30.321ZM118.32 24.3315C118.32 23.9419 118.31 23.6497 118.291 23.4549C118.291 23.2407 118.252 22.9777 118.174 22.6661C118.116 23.2115 117.94 23.6497 117.648 23.9809C117.356 24.2925 116.996 24.5457 116.567 24.7405C116.138 24.9158 115.661 25.0619 115.135 25.1788C114.629 25.2956 114.113 25.4125 113.587 25.5294C112.905 25.6852 112.34 25.9676 111.892 26.3767C111.444 26.7857 111.123 27.2532 110.928 27.7791C110.733 28.305 110.646 28.8504 110.665 29.4153C110.704 29.9802 110.85 30.5061 111.103 30.993C111.357 31.48 111.717 31.889 112.184 32.2202C112.652 32.5513 113.217 32.7363 113.879 32.7753C114.132 32.7948 114.424 32.7753 114.756 32.7169C115.087 32.6584 115.447 32.5416 115.837 32.3663C116.226 32.191 116.635 31.928 117.064 31.5774C117.492 31.2268 117.911 30.769 118.32 30.2042V24.3315Z" fill="#91B7AC"/>
<path d="M99.7359 33.4471C98.0998 33.4471 96.6681 33.1647 95.441 32.5998C94.2138 32.0349 93.1814 31.2948 92.3438 30.3793C91.5257 29.4638 90.9025 28.4217 90.474 27.253C90.065 26.0648 89.8604 24.8572 89.8604 23.6301C89.8604 22.4029 90.0552 21.205 90.4448 20.0363C90.8538 18.8481 91.4674 17.7963 92.2855 16.8808C93.123 15.9653 94.1554 15.2252 95.3825 14.6603C96.6291 14.0954 98.0803 13.813 99.7359 13.813C101.099 13.813 102.365 14.1246 103.534 14.7479C104.722 15.3518 105.647 16.1309 106.31 17.0853L105.842 20.533H105.784C105.667 19.4812 105.414 18.556 105.024 17.7573C104.635 16.9587 104.157 16.2867 103.592 15.7413C103.047 15.1765 102.433 14.7577 101.752 14.485C101.089 14.1928 100.417 14.0467 99.7359 14.0467C98.5283 14.0467 97.4667 14.3194 96.5512 14.8648C95.6357 15.4102 94.8664 16.1406 94.243 17.0561C93.6392 17.9521 93.1815 18.9747 92.8698 20.124C92.5582 21.2537 92.4023 22.4224 92.4023 23.6301C92.4023 24.8182 92.5484 25.9869 92.8406 27.1362C93.1523 28.2854 93.61 29.3177 94.2138 30.2332C94.8177 31.1292 95.5773 31.8499 96.4928 32.3953C97.4277 32.9407 98.5088 33.2134 99.7359 33.2134C100.398 33.2134 101.06 33.0673 101.723 32.7751C102.404 32.4829 103.018 32.0642 103.563 31.5188C104.128 30.9539 104.605 30.2722 104.995 29.4735C105.404 28.6749 105.667 27.7595 105.784 26.7271H105.842L106.31 30.1748C105.647 31.1292 104.722 31.9181 103.534 32.5414C102.365 33.1452 101.099 33.4471 99.7359 33.4471Z" fill="#91B7AC"/>
<path d="M88.23 23.6884C88.0353 22.4807 87.6554 21.5263 87.0906 20.8251C86.5452 20.1044 85.9121 19.5882 85.1914 19.2765C84.4902 18.9454 83.7695 18.7993 83.0293 18.8383C82.3086 18.8772 81.6659 19.0623 81.101 19.3934C80.5556 19.7245 80.1563 20.1823 79.9031 20.7666C79.6693 21.3315 79.6888 21.984 79.9615 22.7242C80.1563 23.2696 80.4874 23.7273 80.9549 24.0974C81.4419 24.448 81.9775 24.7694 82.5619 25.0616C83.1657 25.3343 83.789 25.5972 84.4318 25.8505C85.0746 26.0842 85.6686 26.3569 86.214 26.6685C86.7594 26.9607 87.2269 27.3211 87.6165 27.7496C88.006 28.1586 88.23 28.6748 88.2885 29.2981C88.3664 29.9993 88.1911 30.6324 87.7626 31.1973C87.334 31.7426 86.7594 32.2004 86.0387 32.5705C85.318 32.9406 84.4902 33.2035 83.5553 33.3593C82.6398 33.4957 81.7243 33.5054 80.8088 33.3886C79.9128 33.2717 79.0655 33.0185 78.2669 32.6289C77.4878 32.2199 76.8645 31.655 76.397 30.9343L76.6599 28.3339H76.6891C76.845 29.4832 77.1761 30.4084 77.6825 31.1096C78.2085 31.8108 78.8025 32.3367 79.4648 32.6873C80.1465 33.0185 80.8575 33.1938 81.5977 33.2133C82.3573 33.2327 83.0391 33.1256 83.6429 32.8919C84.2662 32.6581 84.7629 32.3173 85.133 31.8693C85.5226 31.4213 85.6979 30.9148 85.6589 30.3499C85.62 29.7461 85.3862 29.2689 84.9577 28.9183C84.5292 28.5482 84.013 28.2268 83.4092 27.9541C82.8053 27.6619 82.1528 27.399 81.4516 27.1652C80.7504 26.912 80.0881 26.6101 79.4648 26.2595C78.861 25.8894 78.3351 25.4317 77.8871 24.8863C77.4585 24.3214 77.2151 23.6105 77.1566 22.7534C77.0982 21.9353 77.2735 21.2438 77.6825 20.679C78.0916 20.0946 78.637 19.6369 79.3187 19.3057C80.0005 18.9551 80.7796 18.7311 81.6561 18.6337C82.5326 18.5169 83.3994 18.5364 84.2565 18.6922C85.1135 18.8285 85.9219 19.1012 86.6815 19.5103C87.4412 19.8998 88.0547 20.416 88.5222 21.0588L88.2885 23.6884H88.23Z" fill="#91B7AC"/>
<path d="M72.4509 14.0464C72.9963 14.0464 73.4054 14.2217 73.6781 14.5723C73.9507 14.9035 74.0871 15.2736 74.0871 15.6826C74.0871 16.0722 73.9507 16.4423 73.6781 16.7929C73.4054 17.124 72.9963 17.2896 72.4509 17.2896C71.9055 17.2896 71.4965 17.124 71.2238 16.7929C70.9706 16.4423 70.844 16.0722 70.844 15.6826C70.844 15.2736 70.9706 14.9035 71.2238 14.5723C71.4965 14.2217 71.9055 14.0464 72.4509 14.0464ZM71.3114 30.3206V24.4771C71.3114 24.0291 71.3017 23.62 71.2822 23.2499C71.2822 22.8604 71.2433 22.5292 71.1653 22.2565C71.1069 21.9838 70.9998 21.7793 70.844 21.643C70.6881 21.4871 70.4739 21.4092 70.2012 21.4092V21.3508L73.8826 18.8381H73.941V30.3206C73.941 30.7686 73.941 31.1873 73.941 31.5769C73.9605 31.947 73.9994 32.2684 74.0579 32.5411C74.1358 32.8138 74.2527 33.028 74.4085 33.1839C74.5643 33.3202 74.7786 33.3884 75.0513 33.3884V33.4468H70.2012V33.3884C70.4739 33.3884 70.6881 33.3202 70.844 33.1839C70.9998 33.028 71.1069 32.8138 71.1653 32.5411C71.2433 32.2684 71.2822 31.947 71.2822 31.5769C71.3017 31.1873 71.3114 30.7686 71.3114 30.3206Z" fill="#91B7AC"/>
<path d="M58.0726 30.3209V24.4775C58.0726 24.0295 58.0629 23.6204 58.0434 23.2503C58.0434 22.8608 58.0044 22.5296 57.9265 22.2569C57.8681 21.9842 57.761 21.7797 57.6051 21.6434C57.4493 21.4875 57.2351 21.4096 56.9624 21.4096V21.3512L60.6438 18.8385H60.7022V22.8705C61.5592 21.6044 62.4358 20.6597 63.3318 20.0364C64.2472 19.3936 65.1043 18.9846 65.9029 18.8093C66.721 18.6145 67.4514 18.595 68.0942 18.7508C68.7565 18.9067 69.2629 19.1307 69.6135 19.4228L68.9123 22.0524H68.8539C68.7565 21.2733 68.4253 20.65 67.8605 20.1825C67.3151 19.715 66.6431 19.491 65.8445 19.5105C65.0459 19.53 64.1888 19.8416 63.2733 20.4454C62.3578 21.0493 61.5008 22.0329 60.7022 23.3964V30.3209C60.7022 30.769 60.7022 31.1877 60.7022 31.5773C60.7217 31.9474 60.7606 32.2688 60.8191 32.5415C60.897 32.8142 61.0138 33.0284 61.1697 33.1843C61.3255 33.3206 61.5398 33.3888 61.8125 33.3888V33.4472H56.9624V33.3888C57.2351 33.3888 57.4493 33.3206 57.6051 33.1843C57.761 33.0284 57.8681 32.8142 57.9265 32.5415C58.0044 32.2688 58.0434 31.9474 58.0434 31.5773C58.0629 31.1877 58.0726 30.769 58.0726 30.3209Z" fill="#91B7AC"/>
<path d="M54.6817 17.1727V30.3206C54.6817 30.7686 54.6817 31.1873 54.6817 31.5769C54.7012 31.947 54.7401 32.2684 54.7986 32.5411C54.8765 32.8138 54.9934 33.028 55.1492 33.1839C55.305 33.3202 55.5193 33.3884 55.792 33.3884V33.4468H50.9419V33.3884C51.2146 33.3884 51.4288 33.3202 51.5847 33.1839C51.7405 33.028 51.8476 32.8138 51.906 32.5411C51.984 32.2684 52.0229 31.947 52.0229 31.5769C52.0424 31.1873 52.0521 30.7686 52.0521 30.3206V17.1727C52.0521 16.7247 52.0424 16.3157 52.0229 15.9456C52.0229 15.556 51.984 15.2249 51.906 14.9522C51.8476 14.6795 51.7405 14.475 51.5847 14.3386C51.4288 14.1828 51.2146 14.1049 50.9419 14.1049V14.0464H55.792V14.1049C55.2466 14.1049 54.9252 14.3873 54.8278 14.9522C54.7304 15.517 54.6817 16.2572 54.6817 17.1727Z" fill="#91B7AC"/>
<mask id="mask0_382_317" style="mask-type:luminance" maskUnits="userSpaceOnUse" x="0" y="0" width="46" height="46">
<path d="M45.1747 0H0V45.1747H45.1747V0Z" fill="white"/>
</mask>
<g mask="url(#mask0_382_317)">
<path d="M22.9445 0C20.4691 0 18.327 2.66574 17.375 6.47393C18.8507 7.37838 20.3739 8.61604 21.7544 10.1393C25.1818 14.0427 26.5147 18.6126 25.3246 21.2783C27.5619 19.6122 29.1328 15.6612 29.1328 11.0438C29.0852 4.95066 26.3242 0 22.9445 0Z" fill="#91B7AC"/>
<path d="M6.85458 6.37892C5.09328 8.14021 5.4741 11.5199 7.47341 14.8997C9.13949 14.4713 11.0912 14.2809 13.1857 14.4237C18.3744 14.7569 22.5634 17.0418 23.5631 19.8028C23.9439 17.0418 22.2778 13.1384 18.9932 9.9015C14.709 5.52207 9.2347 3.9988 6.85458 6.37892Z" fill="#91B7AC"/>
<path d="M0 22.2781C0 24.7534 2.66574 26.8956 6.47393 27.8476C7.37838 26.3719 8.61604 24.8487 10.1393 23.4682C14.0427 20.0408 18.6126 18.7079 21.2783 19.898C19.6122 17.6607 15.6612 16.0898 11.0438 16.0898C4.95066 16.1374 0 18.8507 0 22.2781Z" fill="#91B7AC"/>
<path d="M6.37892 38.32C8.14021 40.0813 11.5199 39.7005 14.8997 37.7012C14.4713 36.0351 14.2809 34.0834 14.4237 31.9889C14.7569 26.8002 17.0418 22.6112 19.8028 21.6116C17.0418 21.2308 13.1384 22.8968 9.9015 26.1814C5.52207 30.5132 3.9988 35.9399 6.37892 38.32Z" fill="#91B7AC"/>
<path d="M22.2781 45.1748C24.7534 45.1748 26.8956 42.509 27.8476 38.7009C26.3719 37.7964 24.8487 36.5587 23.4682 35.0355C20.0408 31.1321 18.7079 26.5622 19.898 23.8965C17.6607 25.5626 16.0898 29.5136 16.0898 34.131C16.1374 40.2241 18.8507 45.1748 22.2781 45.1748Z" fill="#91B7AC"/>
<path d="M38.32 38.796C40.0813 37.0347 39.7005 33.6549 37.7012 30.2751C36.0351 30.7035 34.0834 30.894 31.9889 30.7511C26.8002 30.4179 22.6112 28.133 21.6116 25.3721C21.2308 28.133 22.8968 32.0364 26.1814 35.2734C30.5132 39.6528 35.9399 41.2237 38.32 38.796Z" fill="#91B7AC"/>
<path d="M45.1748 22.9445C45.1748 20.4691 42.509 18.327 38.7009 17.375C37.7964 18.8507 36.5587 20.3739 35.0355 21.7544C31.1321 25.1818 26.5622 26.5147 23.8965 25.3246C25.5626 27.5619 29.5136 29.1328 34.131 29.1328C40.2241 29.0852 45.1748 26.3242 45.1748 22.9445Z" fill="#91B7AC"/>
<path d="M38.796 6.85458C37.0347 5.09328 33.6549 5.4741 30.2751 7.47341C30.7035 9.13949 30.894 11.0912 30.7511 13.1857C30.4179 18.3744 28.133 22.5634 25.3721 23.5631C28.133 23.9439 32.0364 22.2778 35.2734 18.9932C39.6528 14.709 41.2237 9.2347 38.796 6.85458Z" fill="#91B7AC"/>
</g>
</g>
<defs>
<clipPath id="clip0_382_317">
<rect width="176" height="46" fill="white"/>
</clipPath>
</defs>
</svg>
