<svg width="176" height="46" viewBox="0 0 176 46" fill="none" xmlns="http://www.w3.org/2000/svg">
<path d="M172.26 30.3208V17.1729C172.26 16.7249 172.25 16.3159 172.231 15.9458C172.231 15.5562 172.192 15.2251 172.114 14.9524C172.056 14.6797 171.949 14.4752 171.793 14.3388C171.637 14.183 171.423 14.1051 171.15 14.1051V14.0466L174.831 11.5339H174.89V30.3208C174.89 30.7688 174.89 31.1875 174.89 31.5771C174.909 31.9472 174.948 32.2686 175.007 32.5413C175.085 32.814 175.201 33.0282 175.357 33.1841C175.513 33.3204 175.727 33.3886 176 33.3886V33.447H171.15V33.3886C171.423 33.3886 171.637 33.3204 171.793 33.1841C171.949 33.0282 172.056 32.814 172.114 32.5413C172.192 32.2686 172.231 31.9472 172.231 31.5771C172.25 31.1875 172.26 30.7688 172.26 30.3208Z" fill="#282828"/>
<path d="M168.885 30.3208C168.885 30.7688 168.885 31.1876 168.885 31.5772C168.904 31.9473 168.943 32.2687 169.001 32.5414C169.079 32.8141 169.196 33.0283 169.352 33.1841C169.508 33.3205 169.722 33.3887 169.995 33.3887V33.4471C169.644 33.4471 169.255 33.4374 168.826 33.4179C168.398 33.3984 167.998 33.3108 167.628 33.1549C167.258 32.9796 166.946 32.6972 166.693 32.3076C166.44 31.9181 166.294 31.3532 166.255 30.613C165.398 31.7233 164.482 32.4732 163.509 32.8628C162.554 33.2523 161.541 33.4471 160.47 33.4471C159.496 33.4471 158.678 33.2621 158.016 32.892C157.353 32.5024 156.847 32.0252 156.496 31.4603C156.165 30.876 155.99 30.2429 155.97 29.5612C155.97 28.8794 156.136 28.2367 156.467 27.6328C156.798 27.0095 157.305 26.4739 157.986 26.0259C158.688 25.5584 159.564 25.2662 160.616 25.1493C161.493 25.052 162.272 24.9448 162.953 24.828C163.635 24.7111 164.2 24.5358 164.648 24.302C165.116 24.0488 165.447 23.708 165.641 23.2794C165.836 22.8509 165.875 22.2763 165.758 21.5556C165.661 20.8933 165.417 20.3479 165.028 19.9194C164.658 19.4909 164.21 19.189 163.684 19.0137C163.177 18.8384 162.622 18.7994 162.018 18.8968C161.434 18.9747 160.879 19.1987 160.353 19.5688C159.827 19.9389 159.369 20.4648 158.98 21.1466C158.59 21.8088 158.337 22.6269 158.22 23.6008H158.162L157.665 21.0297C158.133 20.3479 158.736 19.8123 159.477 19.4227C160.217 19.0137 160.996 18.7507 161.814 18.6339C162.652 18.517 163.489 18.5559 164.327 18.7507C165.164 18.926 165.924 19.2474 166.606 19.7149C167.287 20.1824 167.833 20.8057 168.242 21.5848C168.67 22.3445 168.885 23.26 168.885 24.3313V30.3208ZM166.255 24.3313C166.255 23.9417 166.245 23.6495 166.226 23.4547C166.226 23.2405 166.187 22.9775 166.109 22.6659C166.05 23.2113 165.875 23.6495 165.583 23.9807C165.291 24.2923 164.93 24.5455 164.502 24.7403C164.073 24.9156 163.596 25.0617 163.07 25.1786C162.564 25.2954 162.048 25.4123 161.522 25.5292C160.84 25.685 160.275 25.9674 159.827 26.3765C159.379 26.7855 159.058 27.253 158.863 27.7789C158.668 28.3048 158.581 28.8502 158.6 29.4151C158.639 29.98 158.785 30.5059 159.038 30.9928C159.292 31.4798 159.652 31.8888 160.119 32.22C160.587 32.5511 161.152 32.7361 161.814 32.7751C162.067 32.7946 162.359 32.7751 162.69 32.7167C163.022 32.6582 163.382 32.5414 163.772 32.3661C164.161 32.1908 164.57 31.9278 164.999 31.5772C165.427 31.2266 165.846 30.7688 166.255 30.204V24.3313Z" fill="#282828"/>
<path d="M149.795 18.8092H152.658V19.0429H149.795V29.4151C149.795 30.3306 149.98 31.061 150.35 31.6064C150.739 32.1518 151.197 32.4732 151.723 32.5706C152.249 32.6485 152.775 32.4927 153.301 32.1031C153.846 31.7136 154.275 31.0415 154.586 30.0871L154.791 30.1748C154.596 30.876 154.275 31.4798 153.827 31.9862C153.379 32.4927 152.872 32.8725 152.307 33.1257C151.742 33.3789 151.148 33.5056 150.525 33.5056C149.921 33.5056 149.366 33.3692 148.86 33.0965C148.373 32.8043 147.964 32.3661 147.633 31.7817C147.321 31.1779 147.165 30.4085 147.165 29.4735V19.0429H145.47V18.8092C146.074 18.8092 146.62 18.7118 147.107 18.517C147.613 18.3222 148.051 18.0593 148.421 17.7281C148.792 17.3775 149.084 16.9782 149.298 16.5302C149.532 16.0627 149.678 15.5758 149.736 15.0693H149.795V18.8092Z" fill="#282828"/>
<path d="M141.7 14.0466C142.245 14.0466 142.654 14.2219 142.927 14.5725C143.2 14.9037 143.336 15.2738 143.336 15.6828C143.336 16.0724 143.2 16.4425 142.927 16.7931C142.654 17.1242 142.245 17.2898 141.7 17.2898C141.154 17.2898 140.745 17.1242 140.473 16.7931C140.219 16.4425 140.093 16.0724 140.093 15.6828C140.093 15.2738 140.219 14.9037 140.473 14.5725C140.745 14.2219 141.154 14.0466 141.7 14.0466ZM140.56 30.3208V24.4773C140.56 24.0293 140.551 23.6202 140.531 23.2501C140.531 22.8606 140.492 22.5294 140.414 22.2567C140.356 21.984 140.249 21.7795 140.093 21.6432C139.937 21.4873 139.723 21.4094 139.45 21.4094V21.351L143.131 18.8383H143.19V30.3208C143.19 30.7688 143.19 31.1875 143.19 31.5771C143.209 31.9472 143.248 32.2686 143.307 32.5413C143.385 32.814 143.502 33.0282 143.657 33.1841C143.813 33.3204 144.027 33.3886 144.3 33.3886V33.447H139.45V33.3886C139.723 33.3886 139.937 33.3204 140.093 33.1841C140.249 33.0282 140.356 32.814 140.414 32.5413C140.492 32.2686 140.531 31.9472 140.531 31.5771C140.551 31.1875 140.56 30.7688 140.56 30.3208Z" fill="#282828"/>
<path d="M123.215 40.693C123.488 40.693 123.702 40.6151 123.858 40.4593C124.014 40.323 124.121 40.1184 124.179 39.8457C124.257 39.573 124.296 39.2419 124.296 38.8523C124.315 38.4823 124.325 38.0732 124.325 37.6252V24.4773C124.325 24.0293 124.315 23.6203 124.296 23.2502C124.296 22.8606 124.257 22.5295 124.179 22.2568C124.121 21.9841 124.014 21.7796 123.858 21.6433C123.702 21.4874 123.488 21.4095 123.215 21.4095V21.3511L126.896 18.8384H126.955V20.6206C127.403 20.1142 127.938 19.6954 128.562 19.3643C129.185 19.0137 129.964 18.8384 130.899 18.8384C132.535 18.8384 133.899 19.1987 134.99 19.9194C136.08 20.6401 136.898 21.5459 137.444 22.6366C137.989 23.7274 138.262 24.9059 138.262 26.172C138.281 27.4186 138.018 28.5873 137.473 29.6781C136.928 30.7688 136.11 31.6746 135.019 32.3953C133.928 33.116 132.555 33.4763 130.899 33.4763C129.964 33.4763 129.185 33.301 128.562 32.9504C127.938 32.5998 127.403 32.1713 126.955 31.6648V37.6252C126.955 38.5407 127.003 39.2809 127.101 39.8457C127.198 40.4106 127.52 40.693 128.065 40.693V40.7515H123.215V40.693ZM126.955 30.1748C127.325 31.1097 127.841 31.8596 128.503 32.4245C129.166 32.9699 129.964 33.2426 130.899 33.2426C131.951 33.2426 132.828 32.892 133.529 32.1908C134.23 31.4895 134.756 30.613 135.106 29.5612C135.457 28.5094 135.632 27.3796 135.632 26.172C135.632 24.9448 135.457 23.8053 135.106 22.7535C134.756 21.7017 134.23 20.8252 133.529 20.1239C132.828 19.4227 131.951 19.0721 130.899 19.0721C129.964 19.0721 129.166 19.3643 128.503 19.9486C127.841 20.5135 127.325 21.2634 126.955 22.1984V30.1748Z" fill="#282828"/>
<path d="M120.95 30.3208C120.95 30.7688 120.95 31.1876 120.95 31.5772C120.969 31.9473 121.008 32.2687 121.067 32.5414C121.144 32.8141 121.261 33.0283 121.417 33.1841C121.573 33.3205 121.787 33.3887 122.06 33.3887V33.4471C121.709 33.4471 121.32 33.4374 120.891 33.4179C120.463 33.3984 120.063 33.3108 119.693 33.1549C119.323 32.9796 119.012 32.6972 118.758 32.3076C118.505 31.9181 118.359 31.3532 118.32 30.613C117.463 31.7233 116.548 32.4732 115.574 32.8628C114.619 33.2523 113.606 33.4471 112.535 33.4471C111.561 33.4471 110.743 33.2621 110.081 32.892C109.418 32.5024 108.912 32.0252 108.561 31.4603C108.23 30.876 108.055 30.2429 108.036 29.5612C108.036 28.8794 108.201 28.2367 108.532 27.6328C108.863 27.0095 109.37 26.4739 110.052 26.0259C110.753 25.5584 111.629 25.2662 112.681 25.1493C113.558 25.052 114.337 24.9448 115.018 24.828C115.7 24.7111 116.265 24.5358 116.713 24.302C117.181 24.0488 117.512 23.708 117.706 23.2794C117.901 22.8509 117.94 22.2763 117.823 21.5556C117.726 20.8933 117.482 20.3479 117.093 19.9194C116.723 19.4909 116.275 19.189 115.749 19.0137C115.242 18.8384 114.687 18.7994 114.084 18.8968C113.499 18.9747 112.944 19.1987 112.418 19.5688C111.892 19.9389 111.434 20.4648 111.045 21.1466C110.655 21.8088 110.402 22.6269 110.285 23.6008H110.227L109.73 21.0297C110.198 20.3479 110.801 19.8123 111.542 19.4227C112.282 19.0137 113.061 18.7507 113.879 18.6339C114.717 18.517 115.554 18.5559 116.392 18.7507C117.229 18.926 117.989 19.2474 118.671 19.7149C119.352 20.1824 119.898 20.8057 120.307 21.5848C120.735 22.3445 120.95 23.26 120.95 24.3313V30.3208ZM118.32 24.3313C118.32 23.9417 118.31 23.6495 118.291 23.4547C118.291 23.2405 118.252 22.9775 118.174 22.6659C118.116 23.2113 117.94 23.6495 117.648 23.9807C117.356 24.2923 116.996 24.5455 116.567 24.7403C116.138 24.9156 115.661 25.0617 115.135 25.1786C114.629 25.2954 114.113 25.4123 113.587 25.5292C112.905 25.685 112.34 25.9674 111.892 26.3765C111.444 26.7855 111.123 27.253 110.928 27.7789C110.733 28.3048 110.646 28.8502 110.665 29.4151C110.704 29.98 110.85 30.5059 111.103 30.9928C111.357 31.4798 111.717 31.8888 112.184 32.22C112.652 32.5511 113.217 32.7361 113.879 32.7751C114.132 32.7946 114.424 32.7751 114.756 32.7167C115.087 32.6582 115.447 32.5414 115.837 32.3661C116.226 32.1908 116.635 31.9278 117.064 31.5772C117.492 31.2266 117.911 30.7688 118.32 30.204V24.3313Z" fill="#282828"/>
<path d="M99.7357 33.4471C98.0996 33.4471 96.6679 33.1647 95.4408 32.5998C94.2136 32.0349 93.1813 31.2948 92.3437 30.3793C91.5256 29.4638 90.9023 28.4217 90.4738 27.253C90.0648 26.0648 89.8602 24.8572 89.8602 23.6301C89.8602 22.4029 90.055 21.205 90.4446 20.0363C90.8536 18.8481 91.4672 17.7963 92.2853 16.8808C93.1228 15.9653 94.1552 15.2252 95.3823 14.6603C96.6289 14.0954 98.0801 13.813 99.7357 13.813C101.099 13.813 102.365 14.1246 103.534 14.7479C104.722 15.3518 105.647 16.1309 106.31 17.0853L105.842 20.533H105.784C105.667 19.4812 105.414 18.556 105.024 17.7573C104.635 16.9587 104.157 16.2867 103.592 15.7413C103.047 15.1765 102.433 14.7577 101.752 14.485C101.089 14.1928 100.417 14.0467 99.7357 14.0467C98.5281 14.0467 97.4665 14.3194 96.551 14.8648C95.6355 15.4102 94.8662 16.1406 94.2428 17.0561C93.639 17.9521 93.1813 18.9747 92.8696 20.124C92.558 21.2537 92.4021 22.4224 92.4021 23.6301C92.4021 24.8182 92.5482 25.9869 92.8404 27.1362C93.1521 28.2854 93.6098 29.3177 94.2136 30.2332C94.8175 31.1292 95.5771 31.8499 96.4926 32.3953C97.4275 32.9407 98.5086 33.2134 99.7357 33.2134C100.398 33.2134 101.06 33.0673 101.723 32.7751C102.404 32.4829 103.018 32.0642 103.563 31.5188C104.128 30.9539 104.605 30.2722 104.995 29.4735C105.404 28.6749 105.667 27.7595 105.784 26.7271H105.842L106.31 30.1748C105.647 31.1292 104.722 31.9181 103.534 32.5414C102.365 33.1452 101.099 33.4471 99.7357 33.4471Z" fill="#282828"/>
<path d="M88.23 23.6885C88.0353 22.4808 87.6554 21.5264 87.0906 20.8252C86.5452 20.1045 85.9121 19.5883 85.1914 19.2766C84.4902 18.9455 83.7695 18.7994 83.0293 18.8384C82.3086 18.8773 81.6659 19.0624 81.101 19.3935C80.5556 19.7246 80.1563 20.1824 79.9031 20.7667C79.6693 21.3316 79.6888 21.9841 79.9615 22.7243C80.1563 23.2697 80.4874 23.7274 80.9549 24.0975C81.4419 24.4481 81.9775 24.7695 82.5619 25.0617C83.1657 25.3344 83.789 25.5973 84.4318 25.8506C85.0746 26.0843 85.6686 26.357 86.214 26.6686C86.7594 26.9608 87.2269 27.3212 87.6165 27.7497C88.006 28.1587 88.23 28.6749 88.2885 29.2982C88.3664 29.9994 88.1911 30.6325 87.7626 31.1974C87.334 31.7427 86.7594 32.2005 86.0387 32.5706C85.318 32.9407 84.4902 33.2036 83.5553 33.3594C82.6398 33.4958 81.7243 33.5055 80.8088 33.3887C79.9128 33.2718 79.0655 33.0186 78.2669 32.629C77.4878 32.22 76.8645 31.6551 76.397 30.9344L76.6599 28.334H76.6891C76.845 29.4833 77.1761 30.4085 77.6825 31.1097C78.2085 31.8109 78.8025 32.3368 79.4648 32.6874C80.1465 33.0186 80.8575 33.1939 81.5977 33.2134C82.3573 33.2328 83.0391 33.1257 83.6429 32.892C84.2662 32.6582 84.7629 32.3174 85.133 31.8694C85.5226 31.4214 85.6979 30.9149 85.6589 30.35C85.62 29.7462 85.3862 29.269 84.9577 28.9184C84.5292 28.5483 84.013 28.2269 83.4092 27.9542C82.8053 27.662 82.1528 27.3991 81.4516 27.1653C80.7504 26.9121 80.0881 26.6102 79.4648 26.2596C78.861 25.8895 78.3351 25.4318 77.8871 24.8864C77.4585 24.3215 77.2151 23.6106 77.1566 22.7535C77.0982 21.9354 77.2735 21.2439 77.6825 20.6791C78.0916 20.0947 78.637 19.637 79.3187 19.3058C80.0005 18.9552 80.7796 18.7312 81.6561 18.6338C82.5326 18.517 83.3994 18.5365 84.2565 18.6923C85.1135 18.8286 85.9219 19.1013 86.6815 19.5104C87.4412 19.8999 88.0547 20.4161 88.5222 21.0589L88.2885 23.6885H88.23Z" fill="#282828"/>
<path d="M72.4509 14.0466C72.9963 14.0466 73.4054 14.2219 73.6781 14.5725C73.9507 14.9037 74.0871 15.2738 74.0871 15.6828C74.0871 16.0724 73.9507 16.4425 73.6781 16.7931C73.4054 17.1242 72.9963 17.2898 72.4509 17.2898C71.9055 17.2898 71.4965 17.1242 71.2238 16.7931C70.9706 16.4425 70.844 16.0724 70.844 15.6828C70.844 15.2738 70.9706 14.9037 71.2238 14.5725C71.4965 14.2219 71.9055 14.0466 72.4509 14.0466ZM71.3114 30.3208V24.4773C71.3114 24.0293 71.3017 23.6202 71.2822 23.2501C71.2822 22.8606 71.2433 22.5294 71.1653 22.2567C71.1069 21.984 70.9998 21.7795 70.844 21.6432C70.6881 21.4873 70.4739 21.4094 70.2012 21.4094V21.351L73.8826 18.8383H73.941V30.3208C73.941 30.7688 73.941 31.1875 73.941 31.5771C73.9605 31.9472 73.9994 32.2686 74.0579 32.5413C74.1358 32.814 74.2527 33.0282 74.4085 33.1841C74.5643 33.3204 74.7786 33.3886 75.0513 33.3886V33.447H70.2012V33.3886C70.4739 33.3886 70.6881 33.3204 70.844 33.1841C70.9998 33.0282 71.1069 32.814 71.1653 32.5413C71.2433 32.2686 71.2822 31.9472 71.2822 31.5771C71.3017 31.1875 71.3114 30.7688 71.3114 30.3208Z" fill="#282828"/>
<path d="M58.0724 30.3208V24.4774C58.0724 24.0294 58.0627 23.6203 58.0432 23.2502C58.0432 22.8607 58.0042 22.5295 57.9263 22.2568C57.8679 21.9841 57.7608 21.7796 57.6049 21.6433C57.4491 21.4874 57.2349 21.4095 56.9622 21.4095V21.3511L60.6436 18.8384H60.702V22.8704C61.559 21.6043 62.4356 20.6596 63.3316 20.0363C64.247 19.3935 65.1041 18.9845 65.9027 18.8092C66.7208 18.6144 67.4512 18.5949 68.094 18.7507C68.7563 18.9066 69.2627 19.1306 69.6133 19.4227L68.9121 22.0523H68.8537C68.7563 21.2732 68.4251 20.6499 67.8603 20.1824C67.3149 19.7149 66.6429 19.4909 65.8443 19.5104C65.0457 19.5299 64.1886 19.8415 63.2731 20.4453C62.3576 21.0492 61.5006 22.0328 60.702 23.3963V30.3208C60.702 30.7689 60.702 31.1876 60.702 31.5772C60.7215 31.9473 60.7604 32.2687 60.8189 32.5414C60.8968 32.8141 61.0136 33.0283 61.1695 33.1842C61.3253 33.3205 61.5396 33.3887 61.8123 33.3887V33.4471H56.9622V33.3887C57.2349 33.3887 57.4491 33.3205 57.6049 33.1842C57.7608 33.0283 57.8679 32.8141 57.9263 32.5414C58.0042 32.2687 58.0432 31.9473 58.0432 31.5772C58.0627 31.1876 58.0724 30.7689 58.0724 30.3208Z" fill="#282828"/>
<path d="M54.6816 17.1729V30.3208C54.6816 30.7688 54.6816 31.1875 54.6816 31.5771C54.7011 31.9472 54.74 32.2686 54.7985 32.5413C54.8764 32.814 54.9933 33.0282 55.1491 33.1841C55.3049 33.3204 55.5192 33.3886 55.7919 33.3886V33.447H50.9418V33.3886C51.2145 33.3886 51.4287 33.3204 51.5846 33.1841C51.7404 33.0282 51.8475 32.814 51.9059 32.5413C51.9839 32.2686 52.0228 31.9472 52.0228 31.5771C52.0423 31.1875 52.052 30.7688 52.052 30.3208V17.1729C52.052 16.7249 52.0423 16.3159 52.0228 15.9458C52.0228 15.5562 51.9839 15.2251 51.9059 14.9524C51.8475 14.6797 51.7404 14.4752 51.5846 14.3388C51.4287 14.183 51.2145 14.1051 50.9418 14.1051V14.0466H55.7919V14.1051C55.2465 14.1051 54.9251 14.3875 54.8277 14.9524C54.7303 15.5172 54.6816 16.2574 54.6816 17.1729Z" fill="#282828"/>
<g clip-path="url(#clip0_16_300)">
<path d="M22.9444 0C20.469 0 18.3269 2.66574 17.3749 6.47393C18.8506 7.37838 20.3738 8.61604 21.7543 10.1393C25.1817 14.0427 26.5146 18.6126 25.3245 21.2783C27.5618 19.6122 29.1327 15.6612 29.1327 11.0438C29.0851 4.95066 26.3241 0 22.9444 0Z" fill="#282828"/>
<path d="M6.85482 6.37868C5.09352 8.13997 5.47434 11.5197 7.47365 14.8995C9.13973 14.4711 11.0914 14.2807 13.1859 14.4235C18.3746 14.7567 22.5636 17.0416 23.5633 19.8026C23.9441 17.0416 22.278 13.1382 18.9934 9.90126C14.7092 5.52183 9.23494 3.99856 6.85482 6.37868Z" fill="#282828"/>
<path d="M0 22.2779C0 24.7532 2.66574 26.8954 6.47393 27.8474C7.37838 26.3717 8.61604 24.8485 10.1393 23.468C14.0427 20.0406 18.6126 18.7077 21.2783 19.8978C19.6122 17.6605 15.6612 16.0896 11.0438 16.0896C4.95066 16.1372 0 18.8505 0 22.2779Z" fill="#282828"/>
<path d="M6.37868 38.3199C8.13997 40.0812 11.5197 39.7004 14.8995 37.7011C14.4711 36.035 14.2807 34.0833 14.4235 31.9888C14.7567 26.8001 17.0416 22.6111 19.8026 21.6115C17.0416 21.2307 13.1382 22.8967 9.90126 26.1813C5.52183 30.5131 3.99856 35.9398 6.37868 38.3199Z" fill="#282828"/>
<path d="M22.2779 45.1748C24.7532 45.1748 26.8954 42.509 27.8474 38.7009C26.3717 37.7964 24.8485 36.5587 23.468 35.0355C20.0406 31.1321 18.7077 26.5622 19.8978 23.8965C17.6605 25.5626 16.0896 29.5136 16.0896 34.131C16.1372 40.2241 18.8505 45.1748 22.2779 45.1748Z" fill="#282828"/>
<path d="M38.3199 38.796C40.0812 37.0347 39.7004 33.6549 37.7011 30.2751C36.035 30.7035 34.0833 30.894 31.9888 30.7511C26.8001 30.4179 22.6111 28.133 21.6115 25.3721C21.2307 28.133 22.8967 32.0364 26.1813 35.2734C30.5131 39.6528 35.9398 41.2237 38.3199 38.796Z" fill="#282828"/>
<path d="M45.1748 22.9444C45.1748 20.469 42.509 18.3269 38.7009 17.3749C37.7964 18.8506 36.5587 20.3738 35.0355 21.7543C31.1321 25.1817 26.5622 26.5146 23.8965 25.3245C25.5626 27.5618 29.5136 29.1327 34.131 29.1327C40.2241 29.0851 45.1748 26.3241 45.1748 22.9444Z" fill="#282828"/>
<path d="M38.796 6.85482C37.0347 5.09352 33.6549 5.47434 30.2751 7.47365C30.7035 9.13973 30.894 11.0914 30.7511 13.1859C30.4179 18.3746 28.133 22.5636 25.3721 23.5633C28.133 23.9441 32.0364 22.278 35.2734 18.9934C39.6528 14.7092 41.2237 9.23494 38.796 6.85482Z" fill="#282828"/>
</g>
<defs>
<clipPath id="clip0_16_300">
<rect width="45.1747" height="45.1747" fill="white"/>
</clipPath>
</defs>
</svg>
