<svg width="597" height="597" viewBox="0 0 597 597" fill="none" xmlns="http://www.w3.org/2000/svg">
<g clip-path="url(#clip0_416_335)">
<path d="M287.679 133.83L287.676 133.827C269.466 113.733 249.376 97.3948 229.902 85.4381C236.19 60.3787 246.38 39.0925 259.059 24.0664C271.767 9.00453 286.958 0.25 303.218 0.25C325.418 0.25 345.639 16.5126 360.404 42.8997C375.163 69.2781 384.435 105.722 384.749 145.949C384.749 176.432 379.563 204.709 370.689 228.111C361.967 251.113 349.688 269.389 335.283 280.426C342.78 262.823 342.179 239.211 334.203 213.657C326.092 187.67 310.346 159.645 287.679 133.83Z" stroke="black" stroke-width="0.5"/>
<path d="M250.826 131.024L250.829 131.027C293.813 173.388 315.765 224.351 311.279 260.668C304.402 242.714 287.379 226.36 263.702 213.903C239.605 201.224 208.588 192.567 174.273 190.363C146.645 188.479 120.891 190.978 98.8859 196.614C85.7464 174.359 77.9331 152.123 76.2897 132.558C74.6424 112.947 79.1948 96.0441 90.7649 84.474C106.399 68.8404 132.235 65.9907 161.291 74.315C190.338 82.6364 222.542 102.112 250.826 131.024Z" stroke="black" stroke-width="0.5"/>
<path d="M133.83 309.95L133.827 309.953C113.733 328.163 97.3948 348.253 85.4381 367.727C60.3787 361.439 39.0925 351.249 24.0664 338.57C9.00453 325.862 0.25 310.671 0.25 294.411C0.25 271.896 16.5134 251.675 42.8992 236.99C69.277 222.309 105.721 213.195 145.948 212.88C176.431 212.88 204.709 218.066 228.111 226.94C251.113 235.662 269.389 247.941 280.426 262.346C262.823 254.849 239.211 255.45 213.657 263.426C187.67 271.537 159.645 287.283 133.83 309.95Z" stroke="black" stroke-width="0.5"/>
<path d="M131.025 346.174L131.027 346.171C173.388 303.187 224.351 281.235 260.667 285.721C242.714 292.598 226.36 309.621 213.903 333.298C201.224 357.395 192.567 388.412 190.363 422.727C188.479 450.355 190.978 476.109 196.614 498.114C174.359 511.254 152.123 519.067 132.558 520.71C112.947 522.358 96.044 517.805 84.4739 506.235C68.8401 490.601 65.9907 464.922 74.3148 435.945C82.6362 406.977 102.112 374.773 131.025 346.174Z" stroke="black" stroke-width="0.5"/>
<path d="M309.95 463.17L309.953 463.173C328.163 483.267 348.254 499.605 367.727 511.562C361.439 536.621 351.249 557.907 338.57 572.934C325.862 587.995 310.671 596.75 294.411 596.75C271.896 596.75 251.675 580.487 236.99 554.101C222.309 527.723 213.195 491.279 212.88 451.052C212.88 420.569 218.066 392.291 226.94 368.889C235.662 345.887 247.942 327.611 262.347 316.574C254.849 334.177 255.45 357.789 263.426 383.343C271.537 409.33 287.283 437.355 309.95 463.17Z" stroke="black" stroke-width="0.5"/>
<path d="M506.235 512.526L506.234 512.528C490.6 528.474 464.923 531.324 435.946 522.921C406.978 514.521 374.773 494.889 346.174 465.975L346.171 465.973C303.187 423.612 281.236 372.649 285.721 336.332C292.598 354.286 309.621 370.64 333.298 383.097C357.395 395.776 388.412 404.434 422.728 406.637C450.356 408.521 476.109 406.022 498.114 400.386C511.254 422.641 519.067 444.877 520.71 464.442C522.358 484.053 517.805 500.956 506.235 512.526Z" stroke="black" stroke-width="0.5"/>
<path d="M463.17 287.679L463.173 287.676C483.267 269.466 499.605 249.376 511.562 229.902C536.621 236.19 557.907 246.38 572.934 259.059C587.995 271.767 596.75 286.958 596.75 303.218C596.75 325.418 580.487 345.64 554.1 360.404C527.722 375.163 491.278 384.435 451.051 384.749C420.568 384.749 392.291 379.563 368.889 370.689C345.887 361.967 327.611 349.688 316.574 335.283C334.177 342.78 357.789 342.179 383.343 334.203C409.33 326.092 437.355 310.346 463.17 287.679Z" stroke="black" stroke-width="0.5"/>
<path d="M512.526 90.7647L512.528 90.7664C528.474 106.4 531.324 132.234 522.921 161.29C514.521 190.337 494.889 222.541 465.976 250.825L465.973 250.829C423.612 293.812 372.649 315.764 336.332 311.279C354.286 304.401 370.64 287.379 383.097 263.702C395.776 239.605 404.433 208.588 406.637 174.272C408.521 146.644 406.022 120.891 400.386 98.8857C422.641 85.7461 444.877 77.9329 464.442 76.2895C484.053 74.6421 500.956 79.1946 512.526 90.7647Z" stroke="black" stroke-width="0.5"/>
</g>
<defs>
<clipPath id="clip0_416_335">
<rect width="597" height="597" fill="white"/>
</clipPath>
</defs>
</svg>
